<svg version="1.1" xmlns="http://www.w3.org/2000/svg" xmlns:xlink="http://www.w3.org/1999/xlink" xmlns:i="http://ns.adobe.com/AdobeIllustrator/10.0/" xmlns:sketch="http://www.bohemiancoding.com/sketch/ns" height="100%" width="100%" x="0px" y="0px" viewBox="0 0 640 480" xml:space="preserve" preserveAspectRatio="xMidYMid meet" class="">{{text2Gradient}}<rect x="0px" y="0px" width="100%" height="100%" fill="#d6b758"></rect><g class="logo-container-box logoContainerBox" transform="scale(1) translate(0,0)"><g class="container_1" transform="scale(1) translate(145.00001525878906,65)" fill="#07010c"><g>
	<ellipse class="st0" cx="175" cy="175" rx="164.8" ry="164.4"></ellipse>
	<path class="st0" d="M175,349.5C78.6,349.5,0.2,271.3,0.2,175S78.6,0.5,175,0.5S349.8,78.7,349.8,175S271.4,349.5,175,349.5z
		 M175,4.9C81,4.9,4.5,81.2,4.5,175S81,345.1,175,345.1S345.5,268.8,345.5,175S269,4.9,175,4.9z"></path>
</g></g><g class="containerBody" transform="scale(0.9451080505854317) translate(18.585624999999993,8.493959655761728)"><g class="sampleIconBox" transform="scale(1) translate(0,-1)"><g class="sampleIcons_1" transform="scale(1.79) translate(128.7709497206704,64.10209246587488)" fill="#d6b758"><g><path fill="#010101" d="M99.709,46.19L100,45.611l-0.35-0.522l0.291-0.641l-0.35-0.522l0.232-0.581l-0.407-0.521l0.175-0.698  	l-0.406-0.464l0.114-0.582l-0.464-0.464l0.061-0.698l-0.463-0.406l0.06-0.64l-0.524-0.407v-0.639l-0.523-0.35V36.78l-0.521-0.291  	l-0.116-0.641l-0.58-0.349l-0.062-0.639l-0.58-0.232l-0.174-0.582l-0.581-0.232L94.6,33.176l-0.582-0.174l-0.23-0.639l-0.641-0.175  	l-0.232-0.581l-0.641-0.058l-0.348-0.581l-0.64-0.118l-0.349-0.521h-0.641l-0.349-0.581l-0.638,0.058l-0.465-0.522l-0.582,0.115  	l-0.406-0.522l-0.697,0.06l-0.465-0.465l-0.581,0.174l-0.466-0.465l-0.695,0.232l-0.521-0.465l-0.524,0.231l-0.581-0.349  	l-0.639,0.291l-0.523-0.349l-0.523,0.29L81,27.772l-0.521,0.349l-0.641-0.291l-0.523,0.349l-0.58-0.231l-0.522,0.465l-0.696-0.232  	l-0.466,0.465l-0.581-0.174l-0.464,0.465h-0.349l-3.312-12.261l2.383-0.812l0.812-0.29l-0.232-0.814L71.646,0.87L71.48,0  	L70.55,0.231l-3.545,0.814c-0.472,0.12-0.819,0.69-0.696,1.162C66.43,2.679,67,2.969,67.471,2.847l2.674-0.639l3.137,12.203  	l-2.323,0.755c-0.701,0.104-1.004,1.167-0.466,1.627l0.523,1.859L37.428,30.854l-1.104-3.485l0.814-0.581  	c0.06-0.042,0.087-0.11,0.116-0.174l1.162-2.673c0.026-0.064,0.06-0.186,0-0.232c-0.053-0.045-0.172-0.032-0.233,0l-0.697,0.406  	c-0.034,0.02-0.04,0.023-0.06,0.059l-0.872,1.976l-3.196,2.499l-0.232-0.059c-0.046-0.021-0.136-0.044-0.173,0  	c-0.126,0.124-0.234,0.262-0.35,0.349c-0.033,0.03-0.083,0.036-0.115,0.06c-0.06,0.039-0.066,0.109-0.06,0.174  	c0.013,0.065,0.053,0.162,0.117,0.174l0.813,0.116c0.12,0.024,0.25,0.021,0.349-0.058l0.987-0.756l1.046,3.138l-3.428,2.614  	l-0.117-0.348l-0.58-0.231l-0.232-0.642L30.8,33.005l-0.232-0.64l-0.64-0.175l-0.232-0.58l-0.639-0.061l-0.348-0.58l-0.639-0.119  	l-0.349-0.521h-0.639l-0.349-0.582l-0.639,0.059l-0.465-0.522l-0.581,0.115l-0.406-0.522l-0.698,0.058l-0.464-0.465l-0.581,0.174  	l-0.465-0.465l-0.697,0.232l-0.524-0.465l-0.523,0.232l-0.582-0.349l-0.638,0.29l-0.524-0.349l-0.523,0.29l-0.581-0.29h-0.06  	l-0.464,0.349l-0.64-0.29l-0.523,0.349l-0.581-0.232l-0.522,0.465l-0.698-0.232l-0.464,0.465l-0.582-0.174l-0.465,0.465  	l-0.697-0.058l-0.407,0.465L11.1,29.284l-0.407,0.465h-0.639L9.706,30.33H9.067l-0.35,0.522l-0.696,0.118l-0.291,0.58l-0.639,0.059  	l-0.232,0.58l-0.581,0.175l-0.233,0.581l-0.697,0.231l-0.232,0.581l-0.581,0.29L4.474,34.63l-0.638,0.232l-0.06,0.639L3.137,35.85  	l-0.06,0.641l-0.523,0.291l-0.06,0.696l-0.463,0.349v0.64l-0.523,0.406l0.06,0.64l-0.464,0.406l0.06,0.698L0.7,41.08l0.174,0.582  	l-0.467,0.464l0.233,0.696l-0.465,0.521l0.232,0.523l-0.348,0.582l0.231,0.639L0,45.613l0.29,0.521L0,46.774l0.29,0.522l-0.231,0.64  	l0.348,0.522L0.175,49.04l0.407,0.521L0.407,50.26l0.465,0.406l-0.173,0.64l0.464,0.465l-0.06,0.697l0.464,0.349l-0.06,0.697  	L2.03,53.92v0.64l0.465,0.351l0.06,0.638l0.523,0.35l0.06,0.696l0.64,0.291l0.06,0.581l0.639,0.291l0.06,0.581l0.581,0.231  	l0.232,0.697l0.698,0.174l0.231,0.581l0.582,0.115l0.233,0.642l0.638,0.057l0.291,0.64l0.697,0.059l0.349,0.522h0.582l0.406,0.522  	h0.64l0.407,0.521l0.581-0.057l0.465,0.464l0.639-0.059l0.522,0.465l0.582-0.174l0.465,0.406l0.639-0.174l0.582,0.406l0.581-0.232  	l0.523,0.349l0.581-0.232l0.582,0.351l0.581-0.351l0.582,0.351l0.522-0.351l0.639,0.232l0.523-0.349l0.581,0.232l0.522-0.349  	l0.697,0.115l0.465-0.406l0.582,0.174l0.464-0.465l0.697,0.059l0.408-0.466l0.581,0.058l0.465-0.521h0.64l0.348-0.523h0.64  	l0.349-0.521l0.639-0.059l0.349-0.64l0.639-0.06l0.232-0.638l0.639-0.117l0.233-0.58l0.581-0.175l0.173-0.639l0.64-0.29l0.061-0.582  	l0.639-0.291l0.06-0.58l0.581-0.29l0.116-0.698l0.523-0.348v-0.641l0.522-0.349l-0.061-0.64l0.581-0.406l-0.06-0.64l0.465-0.406  	l-0.06-0.64l0.461-0.52l-0.115-0.581l0.407-0.466l-0.175-0.639l0.406-0.58l-0.231-0.582l0.348-0.523l-0.29-0.581l0.348-0.579  	l-0.29-0.581l0.115-0.291l0.873-0.06l-0.116,0.232l0.29,0.291l-0.116,0.348l0.348,0.174l-0.115,0.407l0.406,0.174l-0.06,0.407  	l0.348,0.115v0.406l0.407,0.061l0.06,0.348h0.407l0.118,0.407l0.407-0.059l0.174,0.407l0.349-0.119l0.232,0.351l0.349-0.117  	l0.233,0.289l0.406-0.173l0.232,0.289l0.349-0.232l0.349,0.232l0.291-0.232l0.348,0.174l0.233-0.289l0.349,0.174l0.232-0.349  	l0.407,0.116l0.174-0.349l0.406,0.059l0.116-0.349l-0.581-0.58c-0.626,0.386-1.359,0.638-2.15,0.638  	c-2.269,0-4.125-1.855-4.125-4.125c0-2.269,1.857-4.126,4.125-4.126c2.268,0,4.067,1.857,4.067,4.126c0,0.79-0.196,1.524-0.582,2.15  	L46.43,47.7l0.349-0.118l-0.06-0.406l0.349-0.174l-0.116-0.35L47.3,46.42l-0.174-0.406l0.291-0.231l-0.232-0.35l0.291-0.291  	l-0.233-0.349l0.233-0.291l-0.291-0.29l0.174-0.348l-0.349-0.233l0.173-0.407l-0.348-0.174l0.116-0.406l-0.407-0.174v-0.058  	l25.799-18.711l1.628,5.927l-0.115,0.116h-0.641l-0.35,0.581h-0.639l-0.35,0.522l-0.695,0.119l-0.291,0.581l-0.641,0.057  	l-0.232,0.581l-0.58,0.175l-0.23,0.581l-0.699,0.232l-0.174,0.581l-0.58,0.29l-0.115,0.581l-0.642,0.23l-0.06,0.642l-0.64,0.349  	l-0.062,0.64l-0.522,0.291l-0.06,0.695l-0.465,0.351v0.639l-0.521,0.407l0.059,0.639l-0.465,0.407l0.062,0.696l-0.465,0.465  	l0.174,0.582l-0.465,0.464l0.23,0.698l-0.463,0.521l0.23,0.523l-0.349,0.58l0.231,0.641l-0.289,0.521l0.289,0.523l-0.289,0.638  	l0.289,0.523l-0.231,0.64l0.349,0.523l-0.23,0.58l0.405,0.522l-0.175,0.697l0.466,0.406l-0.175,0.64l0.465,0.465l-0.059,0.696  	l0.463,0.35l-0.06,0.696l0.522,0.408v0.638l0.465,0.351l0.061,0.64l0.523,0.348l0.061,0.697l0.641,0.29l0.06,0.582l0.64,0.291  	l0.115,0.58l0.582,0.232l0.174,0.696l0.697,0.174l0.232,0.582l0.58,0.116l0.231,0.639l0.64,0.06l0.291,0.641l0.696,0.059  	l0.351,0.521h0.58l0.406,0.523h0.641l0.405,0.521l0.581-0.057l0.467,0.465l0.637-0.059l0.524,0.466l0.58-0.175l0.466,0.406  	l0.639-0.174l0.582,0.406l0.58-0.232l0.523,0.35l0.58-0.232l0.582,0.349l0.581-0.349l0.581,0.349l0.521-0.349l0.641,0.232  	l0.521-0.35l0.582,0.232l0.522-0.351l0.696,0.117l0.465-0.406l0.582,0.175l0.465-0.466l0.697,0.059l0.406-0.465l0.58,0.059  	l0.467-0.521h0.638l0.35-0.523h0.64l0.349-0.521l0.64-0.06l0.348-0.64l0.641-0.059l0.232-0.64l0.641-0.115l0.23-0.582l0.582-0.17  	l0.176-0.64l0.638-0.291l0.116-0.58l0.64-0.291l0.062-0.581l0.58-0.291l0.115-0.696l0.523-0.35v-0.639l0.521-0.35l-0.06-0.639  	l0.582-0.407l-0.06-0.64l0.463-0.407l-0.061-0.638l0.465-0.521l-0.113-0.582l0.405-0.465l-0.175-0.64l0.407-0.581l-0.232-0.58  	l0.349-0.523l-0.291-0.581l0.351-0.582L99.709,46.19z M29.583,38.872c1.054,1.615,1.76,3.521,2.034,5.521l-10.053,0.639v-0.06  	L29.583,38.872z M18.427,59.559c-7.391,0-13.364-5.974-13.364-13.363c0-7.393,5.974-13.364,13.364-13.364  	c3.999,0,7.547,1.757,9.995,4.532l-8.019,6.157c-0.563-0.418-1.221-0.695-1.977-0.695c-1.861,0-3.37,1.51-3.37,3.37  	c0,1.859,1.509,3.369,3.37,3.369c1.628,0,2.94-1.137,3.253-2.673l10.112-0.64C31.758,53.617,25.799,59.559,18.427,59.559z  	 M39.229,40.907l-0.118,0.406l-0.407,0.059v0.407l-0.407,0.058v0.407l-0.348,0.117l0.06,0.405l-0.348,0.175l0.116,0.407  	l-0.348,0.174l0.173,0.406l-0.118,0.06l-1.045,0.057l-0.061-0.115l0.233-0.581l-0.406-0.522l0.173-0.696l-0.406-0.466l0.116-0.58  	l-0.464-0.466l0.06-0.697l-0.465-0.406l0.06-0.641l-0.523-0.405v-0.641l-0.522-0.348v-0.697l-0.523-0.29l-0.116-0.641l2.904-2.267  	l3.022,7.38L39.229,40.907z M45.331,41.023l-0.061-0.291l-0.406,0.059l-0.175-0.407l-0.407,0.118l-0.174-0.348l-0.407,0.116  	l-0.231-0.291l-0.35,0.176l-0.291-0.291l-0.349,0.232l-0.291-0.232L41.9,40.155l-0.348-0.233l-0.233,0.291l-0.174-0.058l-3.08-7.555  	l33.414-12.147l0.349,1.395L45.331,41.023z M81.589,59.559c-7.391,0-13.364-5.974-13.364-13.363c0-5.109,2.827-9.547,7.031-11.798  	l3.021,11.101c-0.039,0.219-0.06,0.464-0.06,0.697c0,1.859,1.509,3.369,3.37,3.369c1.859,0,3.37-1.51,3.37-3.369  	c0-1.86-1.511-3.37-3.37-3.37c-0.729,0-1.425,0.245-1.977,0.638l-2.672-9.819c1.438-0.528,3.021-0.812,4.647-0.812  	c7.392,0,13.365,5.973,13.365,13.364C94.954,53.585,88.98,59.559,81.589,59.559z" stroke="#d6b758"></path><path fill="#010101" d="M27.143,28.762c0.026,0.046,0.067,0.048,0.116,0.06c1.65,0.306,3.13,0.352,4.764,0.231  	c0.979-0.254,1.774-1.906,2.208-2.557c1.788-1.955,4.843-3.423,6.973-4.3c0.066-0.026,0.118-0.108,0.115-0.175  	c0-0.355-0.207-0.67-0.464-0.87c-0.24-0.175-0.474-0.276-0.756-0.291l0.002-0.001c-0.282-0.021-0.619,0.09-0.873,0.231  	c-4.839,1.586-7.063,4.653-11.97,6.16c-0.361,0.202-0.541,0.676-0.349,1.045L27.143,28.762z" stroke="#d6b758"></path><path fill="#010101" d="M40.216,48.169c0.837-0.883,1.629-1.395,2.15-1.395c0.454,0,1.088,0.42,1.801,1.104l2.732,2.731h2.148  	l-3.951-3.894c-0.619-0.67-0.93-1.314-0.93-1.744c0-0.521,0.511-1.312,1.395-2.148c-0.279-0.415-0.631-0.768-1.046-1.046  	c-0.837,0.883-1.628,1.395-2.15,1.395c-0.521,0-1.313-0.512-2.15-1.395c-0.415,0.276-0.766,0.631-1.045,1.046  	c0.884,0.836,1.395,1.628,1.395,2.148c0,0.522-0.51,1.313-1.395,2.149C39.45,47.539,39.802,47.891,40.216,48.169z M42.367,43.928  	c0.566,0,0.988,0.48,0.988,1.046c0,0.566-0.422,1.046-0.988,1.046c-0.565,0-1.045-0.479-1.045-1.046  	C41.322,44.408,41.801,43.928,42.367,43.928z" stroke="#d6b758"></path><path fill="#010101" d="M42.367,46.02c0.566,0,0.988-0.479,0.988-1.046c0-0.565-0.422-1.046-0.988-1.046  	c-0.565,0-1.045,0.48-1.045,1.046C41.322,45.54,41.801,46.02,42.367,46.02z M42.367,44.16c0.465,0,0.813,0.349,0.813,0.812  	c0,0.466-0.348,0.871-0.813,0.871c-0.464,0-0.872-0.405-0.872-0.871C41.495,44.509,41.902,44.16,42.367,44.16z" stroke="#d6b758"></path><path fill="#010101" d="M51.491,50.785h-5.289c-0.342,0-0.639,0.298-0.639,0.641v0.638c0,0.342,0.297,0.642,0.639,0.642h5.289  	c0.341,0,0.579-0.299,0.579-0.642v-0.638C52.07,51.082,51.832,50.785,51.491,50.785z M46.435,51.946  	c-0.116,0-0.232-0.118-0.232-0.232s0.118-0.173,0.232-0.173c0.114,0,0.175,0.059,0.175,0.173S46.549,51.946,46.435,51.946z  	 M47.306,52.062c-0.169,0-0.349-0.178-0.349-0.35c0-0.169,0.179-0.29,0.349-0.29s0.291,0.12,0.291,0.29  	C47.597,51.884,47.477,52.062,47.306,52.062z M48.817,52.528c-0.437,0-0.756-0.319-0.756-0.757c0-0.435,0.32-0.812,0.756-0.812  	c0.435,0,0.813,0.379,0.813,0.812C49.63,52.208,49.252,52.528,48.817,52.528z M50.385,52.062c-0.17,0-0.291-0.178-0.291-0.35  	c0-0.169,0.124-0.29,0.291-0.29c0.17,0,0.292,0.12,0.292,0.29C50.677,51.884,50.557,52.062,50.385,52.062z M51.258,51.946  	c-0.113,0-0.232-0.118-0.232-0.232s0.119-0.173,0.232-0.173s0.174,0.059,0.174,0.173S51.371,51.946,51.258,51.946z" stroke="#d6b758"></path><path fill="#010101" d="M48.817,51.366c-0.221,0-0.408,0.186-0.408,0.405c0,0.223,0.187,0.351,0.408,0.351  	c0.221,0,0.407-0.126,0.407-0.351C49.224,51.551,49.038,51.366,48.817,51.366z" stroke="#d6b758"></path></g></g></g><g class="sampleTexts_1" transform="scale(1) translate(-0.0000152587890625,-16.31000366210938)"><g class="logo--name svgLogoName_1 logoNameBox" transform="scale(1) translate(173.0399956703186,326.4)" fill="#f0e8f6"><path d="M9.28-1.55L6.23-1.55L6.23-7.64L9.28-7.64L9.28-1.55ZM9.28-56.53L6.23-56.53L6.23-62.63L9.28-62.63L9.28-56.53ZM9.28-9.19L9.28-54.98L12.33-54.98L12.33-9.19L9.28-9.19ZM29.48-54.98L30.66-54.98L30.66-54.98Q31.92-54.98 32.81-54.09L32.81-54.09L32.81-54.09Q33.70-53.20 33.70-51.94L33.70-51.94L33.70-39.70L33.70-39.70Q33.70-38.44 32.81-37.55L32.81-37.55L32.81-37.55Q31.92-36.66 30.66-36.66L30.66-36.66L29.48-36.66L29.48-36.66Q30.66-37.97 30.66-39.70L30.66-39.70L30.66-51.94L30.66-51.94Q30.66-53.67 29.48-54.98L29.48-54.98ZM29.11-51.94L29.11-39.70L29.11-39.70Q29.11-38.44 28.22-37.55L28.22-37.55L28.22-37.55Q27.33-36.66 26.06-36.66L26.06-36.66L21.52-36.66L21.52-54.98L26.06-54.98L26.06-54.98Q27.33-54.98 28.22-54.09L28.22-54.09L28.22-54.09Q29.11-53.20 29.11-51.94L29.11-51.94ZM30.66-64.17L4.69-64.17L4.69-54.98L7.73-54.98L7.73-9.19L4.69-9.19L4.69 0L24.56 0L24.56-9.19L21.52-9.19L21.52-27.52L30.66-27.52L30.66-27.52Q35.72-27.52 39.28-31.08L39.28-31.08L39.28-31.08Q42.89-34.69 42.89-39.70L42.89-39.70L42.89-51.94L42.89-51.94Q42.89-57 39.28-60.56L39.28-60.56L39.28-60.56Q35.72-64.17 30.66-64.17L30.66-64.17ZM81.78-1.55L78.69-1.55L78.69-8.58L78.31-9L71.09-17.16L71.09-20.02L81.78-8.02L81.78-1.55ZM58.86-1.55L55.81-1.55L55.81-7.64L58.86-7.64L58.86-1.55ZM58.86-56.53L55.81-56.53L55.81-62.63L58.86-62.63L58.86-56.53ZM58.86-9.19L58.86-54.98L61.91-54.98L61.91-9.19L58.86-9.19ZM78.69-51.94L78.69-39.70L78.69-39.70Q78.69-38.44 77.80-37.55L77.80-37.55L77.80-37.55Q76.91-36.66 75.64-36.66L75.64-36.66L71.09-36.66L71.09-54.98L75.64-54.98L75.64-54.98Q76.91-54.98 77.80-54.09L77.80-54.09L77.80-54.09Q78.69-53.20 78.69-51.94L78.69-51.94ZM80.23-36.66L79.06-36.66L79.06-36.66Q80.23-37.97 80.23-39.70L80.23-39.70L80.23-51.94L80.23-51.94Q80.23-53.67 79.06-54.98L79.06-54.98L80.23-54.98L80.23-54.98Q81.50-54.98 82.39-54.09L82.39-54.09L82.39-54.09Q83.28-53.20 83.28-51.94L83.28-51.94L83.28-39.70L83.28-39.70Q83.28-38.44 82.39-37.55L82.39-37.55L82.39-37.55Q81.50-36.66 80.23-36.66L80.23-36.66ZM97.06-9.19L92.98-9.19L76.67-27.52L80.23-27.52L80.23-27.52Q85.30-27.52 88.86-31.08L88.86-31.08L88.86-31.08Q92.47-34.69 92.47-39.70L92.47-39.70L92.47-51.94L92.47-51.94Q92.47-57 88.86-60.56L88.86-60.56L88.86-60.56Q85.30-64.17 80.23-64.17L80.23-64.17L54.27-64.17L54.27-54.98L57.31-54.98L57.31-9.19L54.27-9.19L54.27 0L74.14 0L74.14-9.19L71.09-9.19L71.09-14.86L77.19-8.02L77.19 0L97.06 0L97.06-9.19ZM128.31-64.17L108.44-64.17L108.44-54.98L111.48-54.98L111.48-9.19L108.44-9.19L108.44 0L128.31 0L128.31-9.19L125.27-9.19L125.27-54.98L128.31-54.98L128.31-64.17ZM109.98-56.53L109.98-62.63L113.03-62.63L113.03-56.53L109.98-56.53ZM113.03-9.19L113.03-54.98L116.08-54.98L116.08-9.19L113.03-9.19ZM109.98-1.55L109.98-7.64L113.03-7.64L113.03-1.55L109.98-1.55ZM185.53-64.17L165.66-64.17L165.66-54.98L168.70-54.98L168.70-34.03L156.89-64.17L139.69-64.17L139.69-54.98L142.73-54.98L142.73-9.19L139.69-9.19L139.69 0L159.56 0L159.56-9.19L156.52-9.19L156.52-30.14L168.33 0L185.53 0L185.53-9.19L182.48-9.19L182.48-54.98L185.53-54.98L185.53-64.17ZM167.20-56.53L167.20-62.63L170.25-62.63L170.25-56.53L167.20-56.53ZM141.23-56.53L141.23-62.63L144.28-62.63L144.28-56.53L141.23-56.53ZM173.30-22.31L170.25-30.14L170.25-54.98L173.30-54.98L173.30-22.31ZM144.28-9.19L144.28-54.98L147.33-54.98L147.33-9.19L144.28-9.19ZM169.36-1.55L156.52-34.31L156.52-41.86L172.31-1.55L169.36-1.55ZM141.23-1.55L141.23-7.64L144.28-7.64L144.28-1.55L141.23-1.55ZM227.47-54.98L227.47-53.48L224.42-53.48L224.42-54.98L227.47-54.98ZM224.42-9.19L224.42-10.69L227.47-10.69L227.47-9.19L224.42-9.19ZM198.45-12.23L198.45-51.94L198.45-51.94Q198.45-55.97 201.08-58.97L201.08-58.97L201.08-58.97Q203.70-61.97 207.59-62.53L207.59-62.53L207.59-62.53Q201.50-58.97 201.50-51.94L201.50-51.94L201.50-12.23L201.50-12.23Q201.50-5.16 207.59-1.64L207.59-1.64L207.59-1.64Q203.70-2.20 201.08-5.20L201.08-5.20L201.08-5.20Q198.45-8.20 198.45-12.23L198.45-12.23ZM222.88-51.94L236.61-51.94L236.61-64.17L209.14-64.17L209.14-64.17Q204.08-64.17 200.47-60.56L200.47-60.56L200.47-60.56Q196.91-57 196.91-51.94L196.91-51.94L196.91-12.23L196.91-12.23Q196.91-7.17 200.47-3.56L200.47-3.56L200.47-3.56Q204.08 0 209.14 0L209.14 0L236.61 0L236.61-12.23L222.88-12.23L222.88-9.19L213.73-9.19L213.73-9.19Q212.47-9.19 211.53-10.08L211.53-10.08L211.53-10.08Q210.64-10.97 210.64-12.23L210.64-12.23L210.64-51.94L210.64-51.94Q210.64-53.20 211.53-54.09L211.53-54.09L211.53-54.09Q212.47-54.98 213.73-54.98L213.73-54.98L222.88-54.98L222.88-51.94ZM289.23-64.17L247.98-64.17L247.98-54.98L251.03-54.98L251.03-9.19L247.98-9.19L247.98 0L289.23 0L289.23-12.23L275.50-12.23L275.50-9.19L264.81-9.19L264.81-27.52L273.95-27.52L273.95-24.42L284.64-24.42L284.64-39.70L273.95-39.70L273.95-36.66L264.81-36.66L264.81-54.98L275.50-54.98L275.50-51.94L289.23-51.94L289.23-64.17ZM249.53-56.53L249.53-62.63L252.58-62.63L252.58-56.53L249.53-56.53ZM277-53.48L277-54.98L280.05-54.98L280.05-53.48L277-53.48ZM252.58-9.19L252.58-54.98L255.63-54.98L255.63-9.19L252.58-9.19ZM275.50-36.66L275.50-38.20L278.55-38.20L278.55-36.66L275.50-36.66ZM275.50-25.97L275.50-27.52L278.55-27.52L278.55-25.97L275.50-25.97ZM277-9.19L277-10.69L280.05-10.69L280.05-9.19L277-9.19ZM249.53-1.55L249.53-7.64L252.58-7.64L252.58-1.55L249.53-1.55Z"></path></g><g id="" class="logo--name svgSloganText_1 sloganBox" transform="scale(1) translate(219.28500056266785,367.7299991607666)" fill="#d6b758"><path d="M13.79-11.84L13.79-11.84Q15.84-11.28 16.91-9.86L16.91-9.86L16.91-9.86Q17.98-8.43 17.98-6.20L17.98-6.20L17.98-6.20Q17.98-3.32 16.12-1.66L16.12-1.66L16.12-1.66Q14.26 0 11.01 0L11.01 0L2.45 0L2.45-21.70L9.86-21.70L9.86-21.70Q12.90-21.70 14.49-20.37L14.49-20.37L14.49-20.37Q16.09-19.03 16.09-16.43L16.09-16.43L16.09-16.43Q16.09-14.85 15.50-13.67L15.50-13.67L15.50-13.67Q14.91-12.49 13.79-11.84L13.79-11.84ZM5.83-18.69L5.83-12.90L9.39-12.90L9.39-12.90Q11.01-12.90 11.84-13.55L11.84-13.55L11.84-13.55Q12.68-14.20 12.68-15.78L12.68-15.78L12.68-15.78Q12.68-17.36 11.84-18.03L11.84-18.03L11.84-18.03Q11.01-18.69 9.39-18.69L9.39-18.69L5.83-18.69ZM10.60-3.04L10.60-3.04Q12.40-3.04 13.39-3.86L13.39-3.86L13.39-3.86Q14.38-4.68 14.38-6.42L14.38-6.42L14.38-6.42Q14.38-9.86 10.60-9.86L10.60-9.86L5.83-9.86L5.83-3.04L10.60-3.04ZM35.33 0L35.33-21.70L38.71-21.70L38.71 0L35.33 0ZM67.31 0.43L67.31 0.43Q64.12 0.43 61.60-0.96L61.60-0.96L61.60-0.96Q59.09-2.36 57.68-4.91L57.68-4.91L57.68-4.91Q56.27-7.47 56.27-10.85L56.27-10.85L56.27-10.85Q56.27-14.23 57.71-16.79L57.71-16.79L57.71-16.79Q59.16-19.34 61.68-20.74L61.68-20.74L61.68-20.74Q64.21-22.13 67.43-22.13L67.43-22.13L67.43-22.13Q69.04-22.13 70.52-21.79L70.52-21.79L70.52-21.79Q71.99-21.45 73.14-20.86L73.14-20.86L72.80-17.70L72.80-17.70Q69.97-18.97 67.40-18.97L67.40-18.97L67.40-18.97Q65.01-18.97 63.36-17.92L63.36-17.92L63.36-17.92Q61.70-16.86 60.84-15.04L60.84-15.04L60.84-15.04Q59.99-13.21 59.99-10.85L59.99-10.85L59.99-10.85Q59.99-8.49 60.83-6.67L60.83-6.67L60.83-6.67Q61.67-4.84 63.31-3.78L63.31-3.78L63.31-3.78Q64.95-2.73 67.31-2.73L67.31-2.73L67.31-2.73Q68.83-2.73 70.13-3.05L70.13-3.05L70.13-3.05Q71.43-3.38 72.80-4.00L72.80-4.00L73.14-0.81L73.14-0.81Q70.38 0.43 67.31 0.43L67.31 0.43ZM102.70-21.70L106.48-21.70L98.85-9.14L98.85 0L95.48 0L95.48-9.14L87.82-21.70L91.60-21.70L97.15-12.28L102.70-21.70ZM132.38 0.43L132.38 0.43Q129.19 0.43 126.68-0.96L126.68-0.96L126.68-0.96Q124.17-2.36 122.76-4.91L122.76-4.91L122.76-4.91Q121.35-7.47 121.35-10.85L121.35-10.85L121.35-10.85Q121.35-14.23 122.79-16.79L122.79-16.79L122.79-16.79Q124.23-19.34 126.76-20.74L126.76-20.74L126.76-20.74Q129.28-22.13 132.51-22.13L132.51-22.13L132.51-22.13Q134.12-22.13 135.59-21.79L135.59-21.79L135.59-21.79Q137.07-21.45 138.21-20.86L138.21-20.86L137.87-17.70L137.87-17.70Q135.05-18.97 132.48-18.97L132.48-18.97L132.48-18.97Q130.09-18.97 128.43-17.92L128.43-17.92L128.43-17.92Q126.77-16.86 125.92-15.04L125.92-15.04L125.92-15.04Q125.07-13.21 125.07-10.85L125.07-10.85L125.07-10.85Q125.07-8.49 125.91-6.67L125.91-6.67L125.91-6.67Q126.74-4.84 128.39-3.78L128.39-3.78L128.39-3.78Q130.03-2.73 132.38-2.73L132.38-2.73L132.38-2.73Q133.90-2.73 135.21-3.05L135.21-3.05L135.21-3.05Q136.51-3.38 137.87-4.00L137.87-4.00L138.21-0.81L138.21-0.81Q135.45 0.43 132.38 0.43L132.38 0.43ZM155.65 0L155.65-21.70L159.03-21.70L159.03-3.04L168.55-3.04L168.55 0L155.65 0ZM185.18 0L185.18-21.70L198.70-21.70L198.70-18.54L188.59-18.54L188.59-12.93L196.53-12.93L196.53-9.77L188.59-9.77L188.59-3.16L198.98-3.16L198.98 0L185.18 0Z"></path></g></g></g></g></svg>